<?xml version="1.0" encoding="utf-8"?>
<!-- Generator: Adobe Illustrator 24.1.1, SVG Export Plug-In . SVG Version: 6.00 Build 0)  -->
<svg version="1.1" id="레이어_1" xmlns="http://www.w3.org/2000/svg" xmlns:xlink="http://www.w3.org/1999/xlink" x="0px"
	 y="0px" viewBox="0 0 193.4 52.3" style="enable-background:new 0 0 193.4 52.3;" xml:space="preserve">
<style type="text/css">
	.st0{fill:#FFFFFF;}
</style>
<g>
	<g>
		<path class="st0" d="M19,7.1c-0.1,0-0.3,0-0.6,0.1c-0.3,0-0.9,0.1-1.6,0.1H7.6c-0.8,0-1.6,0-2.3-0.1c-0.6,0-0.8-0.3-1-0.3
			C4.2,6.9,4.1,7,4,7.3c0,0.2-0.5,2.2-0.5,2.6c0,0.2,0,0.4,0.2,0.4C3.9,10.3,4,10.2,4,10c0-0.2,0.2-0.4,0.4-0.8
			c0.3-0.5,0.9-0.6,2.2-0.7l3.4-0.1v9.2c0,2.1,0,3.8-0.1,4.8c-0.1,0.7-0.2,1.1-0.7,1.2c-0.2,0-0.5,0.1-0.8,0.1
			c-0.3,0-0.4,0.1-0.4,0.2c0,0.2,0.2,0.2,0.5,0.2c0.9,0,2.4-0.1,2.9-0.1c0.6,0,2.1,0.1,3.6,0.1c0.3,0,0.4-0.1,0.4-0.2
			c0-0.1-0.1-0.2-0.4-0.2c-0.3,0-0.9,0-1.2-0.1c-0.7-0.1-0.8-0.6-0.9-1.2c-0.1-1-0.1-2.7-0.1-4.8V8.5l2.9,0.1c2.1,0,2.7,0.7,2.7,1.3
			l0,0.2c0,0.3,0.1,0.5,0.3,0.5c0.1,0,0.2-0.1,0.2-0.4c0-0.6,0.1-2.1,0.1-2.6C19.2,7.2,19.1,7.1,19,7.1"/>
		<path class="st0" d="M40.5,23.8c-0.3,0-0.9,0-1.2-0.1c-0.7-0.1-0.8-0.6-0.9-1.2c-0.1-1-0.1-2.7-0.1-4.8v-4c0-3.4,0-4,0-4.8
			c0-0.8,0.2-1.2,0.9-1.3c0.3,0,0.5-0.1,0.7-0.1c0.3,0,0.4,0,0.4-0.2c0-0.2-0.2-0.2-0.5-0.2c-0.9,0-2.4,0.1-2.9,0.1
			c-0.6,0-2.1-0.1-3.3-0.1c-0.3,0-0.5,0-0.5,0.2c0,0.2,0.1,0.2,0.4,0.2c0.3,0,0.7,0,0.9,0.1c0.8,0.2,0.9,0.5,1,1.3
			c0,0.7,0,1.4,0,4.8v0.5c0,0.1-0.1,0.2-0.1,0.2h-8.8c-0.1,0-0.1,0-0.1-0.2v-0.5c0-3.4,0-4,0-4.8c0-0.8,0.2-1.2,0.9-1.3
			c0.3,0,0.5-0.1,0.7-0.1c0.3,0,0.4,0,0.4-0.2c0-0.2-0.2-0.2-0.5-0.2c-0.9,0-2.4,0.1-2.9,0.1c-0.6,0-2.1-0.1-3.3-0.1
			c-0.3,0-0.5,0-0.5,0.2c0,0.2,0.1,0.2,0.4,0.2c0.3,0,0.7,0,0.9,0.1c0.8,0.2,0.9,0.5,1,1.3c0,0.7,0,1.4,0,4.8v4c0,2.1,0,3.8-0.1,4.8
			c-0.1,0.7-0.2,1.1-0.7,1.2c-0.2,0-0.5,0.1-0.8,0.1c-0.3,0-0.4,0.1-0.4,0.2c0,0.2,0.2,0.2,0.5,0.2c0.9,0,2.4-0.1,2.9-0.1
			c0.6,0,2.1,0.1,3.6,0.1c0.3,0,0.5-0.1,0.5-0.2c0-0.1-0.1-0.2-0.4-0.2c-0.3,0-0.9,0-1.2-0.1c-0.7-0.1-0.8-0.6-0.9-1.2
			c-0.1-1-0.1-2.7-0.1-4.8v-2c0-0.1,0.1-0.1,0.1-0.1h8.8c0.1,0,0.1,0,0.1,0.1v2c0,2.1,0,3.8-0.1,4.8c-0.1,0.7-0.2,1.1-0.7,1.2
			c-0.2,0-0.5,0.1-0.8,0.1c-0.3,0-0.4,0.1-0.4,0.2c0,0.2,0.2,0.2,0.5,0.2c0.9,0,2.4-0.1,2.9-0.1c0.6,0,2.1,0.1,3.6,0.1
			c0.3,0,0.5-0.1,0.5-0.2C40.9,23.9,40.8,23.8,40.5,23.8"/>
		<path class="st0" d="M55.1,20.8c-0.2,0-0.2,0.1-0.3,0.3c-0.2,0.9-0.4,1.4-1,1.7c-0.6,0.3-1.6,0.3-2.2,0.3c-2.4,0-2.7-0.3-2.8-1.9
			c0-0.7,0-2.7,0-3.5v-1.8c0-0.1,0-0.2,0.1-0.2c0.6,0,2.8,0,3.3,0.1c0.9,0.1,1.2,0.4,1.3,0.9c0.1,0.3,0.1,0.6,0.1,0.8
			c0,0.1,0,0.2,0.2,0.2c0.2,0,0.2-0.2,0.2-0.4c0-0.2,0.1-1.1,0.1-1.5c0.1-1.1,0.2-1.5,0.2-1.6c0-0.1-0.1-0.2-0.2-0.2
			c-0.1,0-0.2,0.1-0.4,0.3c-0.2,0.2-0.6,0.3-1.1,0.3c-0.5,0-3.2,0-3.7,0c-0.1,0-0.2-0.1-0.2-0.2V8.6c0-0.2,0-0.2,0.2-0.2
			c0.5,0,2.9,0,3.3,0.1c1.2,0.1,1.4,0.4,1.5,0.8C53.9,9.6,54,10,54,10.1c0,0.2,0.1,0.3,0.2,0.3c0.2,0,0.2-0.1,0.2-0.2
			c0-0.3,0.1-1.3,0.1-1.5c0.1-1,0.2-1.3,0.2-1.5c0-0.1,0-0.2-0.1-0.2c-0.1,0-0.3,0.1-0.4,0.1c-0.2,0-0.6,0.1-1,0.1c-0.4,0-5,0-5.8,0
			c-0.3,0-0.9,0-1.5,0c-0.6,0-1.3,0-1.9,0c-0.3,0-0.5,0-0.5,0.2c0,0.2,0.1,0.2,0.4,0.2c0.3,0,0.7,0,0.9,0.1c0.8,0.2,0.9,0.5,1,1.3
			c0,0.7,0,1.4,0,4.8v4c0,2.1,0,3.8-0.1,4.8c-0.1,0.7-0.2,1.1-0.7,1.2c-0.2,0-0.5,0.1-0.8,0.1c-0.3,0-0.4,0.1-0.4,0.2
			c0,0.2,0.2,0.2,0.5,0.2c0.5,0,1.1,0,1.6,0c0.6,0,1.1,0,1.3,0c0.7,0,1.4,0,2.4,0.1c1,0,2.3,0.1,4,0.1c0.9,0,1.1,0,1.3-0.6
			c0.1-0.4,0.3-2,0.3-2.5C55.3,21,55.3,20.8,55.1,20.8"/>
		<path class="st0" d="M117.5,20.7c-0.2,0-0.2,0.1-0.3,0.3c-0.2,0.9-0.4,1.4-1,1.7c-0.6,0.3-1.6,0.3-2.2,0.3c-2.4,0-2.7-0.3-2.8-1.9
			c0-0.7,0-2.7,0-3.5v-1.8c0-0.1,0-0.2,0.1-0.2c0.6,0,2.8,0,3.3,0.1c0.9,0.1,1.2,0.4,1.3,0.9c0.1,0.3,0.1,0.6,0.1,0.8
			c0,0.1,0,0.2,0.2,0.2c0.2,0,0.2-0.2,0.2-0.4c0-0.2,0.1-1.1,0.1-1.5c0.1-1.1,0.2-1.5,0.2-1.6c0-0.1-0.1-0.2-0.2-0.2
			c-0.1,0-0.2,0.1-0.4,0.3c-0.2,0.2-0.6,0.3-1.1,0.3c-0.5,0-3.2,0-3.7,0c-0.1,0-0.2-0.1-0.2-0.2V8.6c0-0.2,0-0.2,0.2-0.2
			c0.5,0,2.9,0,3.3,0.1c1.2,0.1,1.4,0.4,1.5,0.8c0.1,0.3,0.1,0.7,0.1,0.8c0,0.2,0,0.3,0.2,0.3c0.2,0,0.2-0.1,0.2-0.2
			c0-0.3,0.1-1.3,0.1-1.5c0.1-1,0.2-1.3,0.2-1.5c0-0.1,0-0.2-0.1-0.2c-0.1,0-0.3,0.1-0.4,0.1c-0.2,0-0.6,0.1-1,0.1c-0.4,0-5,0-5.8,0
			c-0.3,0-0.9,0-1.5,0c-0.6,0-1.2,0-1.9,0c-0.3,0-0.5,0-0.5,0.2c0,0.2,0.1,0.2,0.4,0.2c0.3,0,0.7,0,0.9,0.1c0.8,0.2,0.9,0.5,1,1.3
			c0,0.7,0,1.3,0,4.8v4c0,2.1,0,3.8-0.1,4.8c-0.1,0.7-0.2,1.1-0.7,1.2c-0.2,0-0.9,0.1-1.2,0.1c-0.3,0-0.4,0.1-0.4,0.2
			c0,0.2,0.2,0.2,0.5,0.2c0.5,0,1.5,0,2,0c0.6,0,1.1,0,1.3,0c0.7,0,1.4,0,2.4,0.1c1,0,2.3,0.1,4,0.1c0.9,0,1.1,0,1.2-0.6
			c0.1-0.5,0.3-2,0.3-2.5C117.7,20.9,117.7,20.7,117.5,20.7"/>
		<path class="st0" d="M69.1,11.9c0-4.1,0-5-0.1-5.9c-0.1-0.9-0.3-1.2-1.1-1.4c-0.2-0.1-0.7-0.1-1-0.1c-0.3,0-0.5-0.1-0.5-0.2
			C66.5,4.1,66.6,4,67,4c0.7,0,1.5,0,2.2,0c0.7,0,1.3,0.1,1.7,0.1c0.9,0,6.1,0,6.6,0C78,4,78.4,4,78.6,3.9c0.1,0,0.3-0.1,0.4-0.1
			c0.1,0,0.2,0.1,0.2,0.2c0,0.2-0.1,0.4-0.2,1.6c0,0.3-0.1,1.4-0.1,1.8c0,0.1-0.1,0.3-0.3,0.3c-0.2,0-0.2-0.1-0.2-0.4
			c0-0.2,0-0.6-0.2-1c-0.2-0.5-0.5-0.8-1.8-1c-0.5-0.1-3.3-0.1-3.8-0.1c-0.1,0-0.2,0.1-0.2,0.3v7c0,0.2,0,0.3,0.2,0.3
			c0.6,0,3.7,0,4.3-0.1c0.6-0.1,1-0.1,1.3-0.4c0.2-0.2,0.3-0.3,0.4-0.3c0.1,0,0.2,0.1,0.2,0.2c0,0.2-0.1,0.5-0.2,1.8
			c0,0.5-0.1,1.6-0.1,1.8c0,0.2,0,0.5-0.2,0.5c-0.2,0-0.2-0.1-0.2-0.2c0-0.3,0-0.6-0.1-1c-0.1-0.5-0.5-0.9-1.5-1
			c-0.5-0.1-3.2-0.1-3.8-0.1c-0.1,0-0.2,0.1-0.2,0.3v2.1c0,0.9,0,3.6,0,4.3c0.1,1.8,0.5,2.2,3.2,2.2c0.7,0,1.8,0,2.5-0.3
			c0.7-0.3,1-0.9,1.2-2c0.1-0.3,0.1-0.4,0.3-0.4c0.2,0,0.2,0.2,0.2,0.5c0,0.6-0.2,2.3-0.3,2.8c-0.2,0.7-0.4,0.7-1.4,0.7
			c-2,0-3.5-0.1-4.6-0.1c-1.1-0.1-1.9-0.1-2.7-0.1c-0.3,0-0.9,0-1.5,0c-0.6,0-1.3,0.1-1.8,0.1c-0.3,0-0.5-0.1-0.5-0.3
			c0-0.1,0.1-0.2,0.4-0.2c0.4,0,0.7-0.1,1-0.1c0.5-0.1,0.7-0.6,0.8-1.3c0.1-1.1,0.1-3.4,0.1-5.9V11.9z"/>
		<path class="st0" d="M86,7.1c0.1-0.4,0.3-0.6,0.5-0.6c0.2,0,0.3,0.1,0.6,0.7l3.6,7.4l2.7,5.3l6.3-12.8c0.2-0.4,0.3-0.6,0.5-0.6
			c0.2,0,0.5,0.2,0.5,0.7l2.1,14c0.2,1.4,0.4,2,1.1,2.2c0.7,0.2,1.6,0.2,1.9,0.2c0.2,0,0.4,0.1,0.4,0.2c0,0.2-0.5,0.2-0.8,0.2
			c-0.4,0-2.3,0-3.6-0.1c-0.7,0-1.3,0.1-1.6,0c-0.6,0-0.7-0.1-0.7-0.3c0-0.1,0.1-0.2,0.3-0.2c0.1-0.1,0.2-0.5,0.1-1.1l-1.3-9.8h-0.2
			l-5,10.1c-0.5,1.1-0.6,1.3-0.9,1.3c-0.3,0-0.5-0.5-0.9-1.1c-0.6-1-2.4-4.5-2.7-5.2c-0.2-0.4-1.6-3.2-2.4-4.8h-0.2l-1.1,8.9
			c-0.1,0.4-0.1,0.7-0.1,1.1c0,0.4,0.3,0.6,0.7,0.7c0.4,0.1,0.6,0.1,0.8,0.1c0.2,0,0.4,0.1,0.4,0.2c0,0.2-0.2,0.3-0.6,0.3
			c-1,0-2-0.1-2.4-0.1c-0.5,0-1.6,0.1-2.3,0.1c-0.2,0-0.4-0.1-0.4-0.3c0-0.1,0.1-0.2,0.4-0.2c0.2,0,0.3,0,0.7-0.1
			c0.6-0.1,0.9-1,1-1.7L86,7.1z"/>
		<path class="st0" d="M138.3,23.9c-0.4-0.2-0.5-0.3-0.5-0.8c0-1.2,0.1-2.6,0.1-3c0-0.3,0.1-0.6,0.3-0.6c0.2,0,0.2,0.2,0.2,0.4
			c0,0.3,0.1,0.8,0.2,1.2c0.5,1.7,2.3,2.3,3.7,2.3c2,0,3.3-1.3,3.3-2.9c0-1-0.2-2.1-2.3-3.3l-1.4-0.8c-2.8-1.6-3.7-3.1-3.7-5.1
			c0-2.8,2.6-4.6,5.9-4.6c1.5,0,2.7,0.2,3.3,0.4c0.2,0.1,0.3,0.1,0.3,0.3c0,0.3-0.1,0.9-0.1,2.7c0,0.5-0.1,0.7-0.3,0.7
			c-0.2,0-0.2-0.1-0.2-0.4c0-0.4-0.2-1-0.6-1.5c-0.4-0.4-0.9-1.1-2.6-1.1c-1.7,0-3.3,0.9-3.3,2.5c0,1,0.3,1.9,2.4,3.1l1,0.5
			c3.1,1.7,4.1,3.4,4.1,5.4c0,1.7-0.6,3-2.3,4.2c-1.1,0.8-2.7,0.9-3.9,0.9C140.8,24.5,139.3,24.4,138.3,23.9"/>
		<path class="st0" d="M150.4,15.6c0-3.9,2.7-8.9,9.8-8.9c5.9,0,9.6,3.3,9.6,8.5c0,5.2-3.7,9.3-9.8,9.3
			C153.2,24.5,150.4,19.7,150.4,15.6 M166.4,16.1c0-5-3.1-8.2-6.9-8.2c-2.6,0-5.7,1.4-5.7,7c0,4.7,2.7,8.4,7.1,8.4
			C162.6,23.3,166.4,22.5,166.4,16.1"/>
		<path class="st0" d="M174.6,21.1c0.1,1.8,0.3,2.3,0.8,2.5c0.4,0.1,0.9,0.2,1.2,0.2c0.3,0,0.4,0.1,0.4,0.2c0,0.2-0.2,0.2-0.5,0.2
			c-1.5,0-2.5-0.1-2.9-0.1c-0.2,0-1.3,0.1-2.5,0.1c-0.3,0-0.5,0-0.5-0.2c0-0.1,0.2-0.2,0.4-0.2c0.3,0,0.7,0,1.1-0.1
			c0.6-0.2,0.7-0.8,0.7-2.7l0.1-13.4c0-0.5,0.2-0.8,0.4-0.8c0.3,0,0.5,0.3,0.9,0.7c0.3,0.3,3.9,3.9,7.3,7.2c1.6,1.6,4.7,4.8,5,5.1
			h0.1l-0.2-10.1c0-1.4-0.2-1.8-0.8-2c-0.3-0.1-0.9-0.1-1.2-0.1c-0.3,0-0.4-0.1-0.4-0.2c0-0.2,0.2-0.2,0.6-0.2
			c1.2,0,2.3,0.1,2.9,0.1c0.3,0,1.1-0.1,2.3-0.1c0.3,0,0.5,0,0.5,0.2c0,0.1-0.1,0.2-0.4,0.2c-0.2,0-0.4,0-0.7,0.1
			c-0.6,0.2-0.8,0.6-0.8,1.9l-0.2,14.3c0,0.5-0.2,0.7-0.4,0.7c-0.4,0-0.7-0.2-0.9-0.5c-1.5-1.4-4.4-4.2-6.9-6.5
			c-2.6-2.5-5-5.2-5.4-5.6h-0.1L174.6,21.1z"/>
		<path class="st0" d="M122.5,13.6c0-3.4,0-4.1,0-4.8c-0.1-0.8-0.3-1-1-1.2c-0.2-0.1-0.6-0.1-0.9-0.1c-0.2,0-0.4-0.1-0.4-0.2
			c0-0.2,0.2-0.2,0.5-0.2c1.2,0,2.6,0,3.1,0c0.8,0,2.8,0,3.5,0c1.5,0,3.2,0.1,4.5,1c0.7,0.5,1.6,1.6,1.6,3.2c0,1.7-1,3.2-3.3,5
			c1.1,1.3,2,2.7,2.9,3.7c0.8,1,1.6,1.7,2.3,2.4c1.3,1.3,2.2,1.3,2.5,1.3c0.2,0.1,1.2,0.1,1.4,0.1c0.2,0,0.3,0.1,0.3,0.2
			c0,0.2-0.2,0.2-0.5,0.2h-3c-1.3,0-1.9-0.1-2.5-0.5c-1-0.5-1.9-1.6-3.2-3.3c-0.9-1.2-2-2.7-2.3-3.1c-0.1-0.1-0.3-0.2-0.4-0.2
			l-2.1-0.1c-0.1,0-0.2,0.1-0.2,0.2v0.3c0,2.1,0,3.9,0.1,4.8c0.1,0.7,0.2,1.1,0.9,1.2c0.3,0.1,0.9,0.1,1.1,0.1
			c0.2,0,0.3,0.1,0.3,0.2c0,0.2-0.2,0.2-0.5,0.2c-1.4,0-3.2-0.1-3.5-0.1c-0.5,0-1.8,0.1-2.7,0.1c-0.3,0-0.5-0.1-0.5-0.2
			c0-0.1,0.1-0.2,0.4-0.2c0.3,0,0.6,0,0.8-0.1c0.5-0.1,0.6-0.5,0.7-1.2c0.1-1,0.1-2.7,0.1-4.8V13.6z M125.3,15.4
			c0,0.2,0.1,0.3,0.2,0.4c0.5,0.2,1.2,0.3,1.8,0.3c0.9,0,1.5-0.2,1.8-0.4c0.7-0.5,1.4-1.5,1.4-3.3c0-3.6-2.2-4.1-3.6-4.1
			c-0.6,0-1.1,0-1.4,0.1c-0.2,0.1-0.2,0.1-0.2,0.3V15.4z"/>
		<path class="st0" d="M84.1,49V48c0,0,0.2,0.4,0.8,0.4c0,0,1.3,0,1.4-1.5v-8.6c0,0,0-0.4-0.3-0.6h1.8c0,0-0.3,0.2-0.3,0.6v8
			c0,0,0.1,2.3-2.1,2.5C85,49,84.1,49,84.1,49"/>
		<path class="st0" d="M109.7,38.4v8.5l-6.9-7.8v6.8c0,0.3,0.3,0.5,0.3,0.5h-1.2c0.3-0.1,0.3-0.5,0.3-0.5v-7.5c0,0,0,0,0,0
			c0-0.5-0.3-0.6-0.3-0.6h1.1l6,6.8v-6.2c0-0.5-0.3-0.6-0.3-0.6h1.2C109.9,37.8,109.7,38,109.7,38.4"/>
		<path class="st0" d="M120.3,43.5V46c-0.4,0.2-0.8,0.3-1.3,0.4c-0.5,0.1-1,0.2-1.6,0.2c-0.6,0-1.2-0.1-1.8-0.3
			c-0.6-0.2-1.1-0.5-1.5-0.9c-0.4-0.4-0.8-0.9-1-1.4c-0.3-0.6-0.4-1.2-0.4-1.8c0-0.7,0.1-1.3,0.4-1.8c0.2-0.6,0.6-1,1-1.4
			c0.4-0.4,0.9-0.7,1.5-0.9c0.6-0.2,1.2-0.3,1.8-0.3c0.9,0,1.7,0.1,2.5,0.4v1.3c-0.2-0.4-0.5-0.7-0.9-0.9c-0.4-0.2-0.9-0.3-1.4-0.3
			c-0.5,0-1,0.1-1.4,0.3c-0.4,0.2-0.8,0.5-1.1,0.9c-0.3,0.4-0.6,0.8-0.8,1.3c-0.2,0.5-0.3,1-0.3,1.6c0,0.6,0.1,1.1,0.3,1.6
			c0.2,0.5,0.4,0.9,0.8,1.3c0.3,0.4,0.7,0.7,1.1,0.9c0.4,0.2,0.9,0.3,1.4,0.3c0.3,0,0.6,0,0.8-0.1c0.3-0.1,0.5-0.1,0.7-0.2v-2.4
			c0-0.3-0.1-0.5-0.3-0.6h1.8C120.4,43,120.3,43.2,120.3,43.5"/>
		<path class="st0" d="M74.1,42.8c-0.2-0.2-0.4-0.5-0.6-0.7c-0.3-0.2-0.6-0.5-1-0.7c-0.2-0.1-0.4-0.2-0.5-0.3
			c-0.2-0.1-0.4-0.2-0.5-0.4c-0.2-0.1-0.3-0.3-0.4-0.5c-0.1-0.2-0.1-0.4-0.1-0.6c0-0.4,0.1-0.8,0.4-1.1c0.3-0.3,0.7-0.4,1.3-0.4
			c0.4,0,0.7,0.1,1,0.3c0.2,0.2,0.4,0.4,0.6,0.7v-1.1c-0.2-0.1-0.4-0.2-0.7-0.2c-0.3-0.1-0.5-0.1-0.8-0.1c-0.4,0-0.7,0-1.1,0.1
			c-0.3,0.1-0.6,0.2-0.9,0.4c-0.3,0.2-0.4,0.4-0.6,0.7c-0.1,0.3-0.2,0.6-0.2,1.1c0,0.3,0.1,0.6,0.2,0.9c0.1,0.3,0.3,0.5,0.5,0.7
			c0.2,0.2,0.4,0.4,0.7,0.6c0.2,0.2,0.5,0.3,0.7,0.4c0.3,0.2,0.6,0.3,0.7,0.5c0.2,0.2,0.3,0.3,0.4,0.5c0.1,0.1,0.2,0.3,0.2,0.5
			c0,0.2,0.1,0.3,0.1,0.5c0,0.5-0.2,0.9-0.5,1.2c-0.3,0.3-0.7,0.5-1.2,0.5c-0.4,0-0.7-0.1-1-0.2c-0.3-0.1-0.5-0.4-0.6-0.7v1.2
			c0.2,0.1,0.5,0.1,0.8,0.2c0.3,0,0.5,0.1,0.8,0.1c0.4,0,0.7-0.1,1.1-0.1c0.3-0.1,0.6-0.2,0.9-0.4c0.3-0.2,0.5-0.5,0.6-0.8
			c0.2-0.3,0.2-0.7,0.2-1.1c0-0.2,0-0.5-0.1-0.7C74.3,43.2,74.2,43,74.1,42.8"/>
		<path class="st0" d="M81.4,45.9h-2.7v-3.7H81c0.1,0,0.2,0,0.3,0.1c0.1,0.1,0.2,0.1,0.2,0.2v-1.1c-0.1,0.2-0.3,0.3-0.5,0.3h-2.2
			v-3.4h2.4c0.3,0,0.5,0.1,0.7,0.2c0.2,0.1,0.3,0.3,0.4,0.5v-1.2h-5c0.2,0.2,0.3,0.4,0.3,0.6v8h5v-1.1C82.3,45.7,82,45.9,81.4,45.9"
			/>
		<path class="st0" d="M97.9,38.9c-0.4-0.4-0.9-0.7-1.4-1c-0.5-0.2-1.1-0.4-1.7-0.4c-0.6,0-1.2,0.1-1.7,0.4c-0.5,0.2-1,0.6-1.4,1
			c-0.4,0.4-0.7,0.9-0.9,1.4c-0.2,0.5-0.3,1.1-0.3,1.8c0,0.6,0.1,1.2,0.3,1.8c0.2,0.5,0.5,1,0.9,1.4c0.4,0.4,0.9,0.7,1.4,1
			c0.5,0.2,1.1,0.4,1.7,0.4c0.6,0,1.2-0.1,1.7-0.4c0.5-0.2,1-0.6,1.4-1c0.4-0.4,0.7-0.9,0.9-1.4c0.2-0.5,0.3-1.1,0.3-1.8
			c0-0.6-0.1-1.2-0.3-1.8C98.6,39.8,98.3,39.3,97.9,38.9 M97.6,43.8c-0.1,0.5-0.4,0.9-0.6,1.2c-0.3,0.3-0.6,0.6-0.9,0.8
			c-0.4,0.2-0.7,0.3-1.1,0.3c-0.5,0-1-0.1-1.4-0.4c-0.4-0.3-0.7-0.6-1-1c-0.3-0.4-0.5-0.9-0.6-1.4c-0.1-0.5-0.2-1-0.2-1.4
			c0-0.5,0.1-1,0.2-1.5c0.1-0.5,0.4-0.9,0.6-1.2c0.3-0.3,0.6-0.6,0.9-0.8c0.4-0.2,0.7-0.3,1.1-0.3c0.5,0,1,0.1,1.4,0.4
			c0.4,0.3,0.7,0.6,1,1c0.3,0.4,0.5,0.9,0.6,1.4c0.1,0.5,0.2,1,0.2,1.4C97.9,42.9,97.8,43.4,97.6,43.8"/>
	</g>
</g>
</svg>
